<?xml version="1.0" encoding="UTF-8"?>
<svg version="1.1" xmlns="http://www.w3.org/2000/svg" width="1024" height="120">
<path d="M0 0 C1.10239014 0.00483398 2.20478027 0.00966797 3.34057617 0.01464844 C10.41830078 0.1511118 15.56601045 1.15785343 22.06640625 3.875 C25.29548889 4.683534 26.75821531 4.01202868 29.8125 2.75 C36.11901978 0.16549786 41.96567007 0.06454373 48.6875 0.0625 C49.70102539 0.0531543 50.71455078 0.04380859 51.75878906 0.03417969 C61.98937321 0.14411433 71.10009294 2.12069325 78.5625 9.5 C84.40654732 16.81621191 85.87190856 24.23627986 85.78955078 33.37280273 C85.78984283 34.23213913 85.79013489 35.09147552 85.79043579 35.97685242 C85.78905086 38.79587163 85.77352931 41.61462114 85.7578125 44.43359375 C85.75407939 46.39656937 85.75123383 48.35954687 85.74923706 50.32252502 C85.74162407 55.47310589 85.72199569 60.62357283 85.6998291 65.77410889 C85.67932031 71.03623921 85.6702246 76.29838805 85.66015625 81.56054688 C85.63874752 91.87375586 85.60358447 102.1868506 85.5625 112.5 C77.3125 112.5 69.0625 112.5 60.5625 112.5 C60.53744385 109.8091626 60.5123877 107.1183252 60.48657227 104.34594727 C60.40327078 95.47702984 60.31456304 86.60817252 60.22316074 77.73933506 C60.16788561 72.35969196 60.11445842 66.98004348 60.06518555 61.6003418 C60.01760952 56.41320329 59.96526944 51.22613315 59.90955925 46.03907585 C59.88910495 44.05545684 59.87039708 42.07181906 59.85342598 40.08816719 C59.82944977 37.31985784 59.79938636 34.55167898 59.76782227 31.78344727 C59.7620668 30.95482681 59.75631134 30.12620636 59.75038147 29.2724762 C60.05051344 25.58336096 60.05051344 25.58336096 58.5625 22.5 C57.0737814 22.41330568 55.581055 22.39296506 54.08984375 22.40234375 C52.74116211 22.40717773 52.74116211 22.40717773 51.36523438 22.41210938 C50.41970703 22.42048828 49.47417969 22.42886719 48.5 22.4375 C47.55060547 22.44201172 46.60121094 22.44652344 45.62304688 22.45117188 C43.26946935 22.4629989 40.91601523 22.47947975 38.5625 22.5 C36.94946669 25.72606663 37.38219995 29.25898288 37.35717773 32.80517578 C37.34727814 33.66378204 37.33737854 34.52238831 37.32717896 35.40701294 C37.29551961 38.25308447 37.27078902 41.09917271 37.24609375 43.9453125 C37.22552805 45.91544028 37.20453168 47.8855636 37.18312073 49.85568237 C37.12786039 55.04734702 37.0784686 60.23905174 37.03027344 65.43078613 C36.98008731 70.72602923 36.92438619 76.02121395 36.86914062 81.31640625 C36.76151058 91.71088954 36.66058586 102.10542227 36.5625 112.5 C28.3125 112.5 20.0625 112.5 11.5625 112.5 C11.53744385 109.8091626 11.5123877 107.1183252 11.48657227 104.34594727 C11.40327078 95.47702984 11.31456304 86.60817252 11.22316074 77.73933506 C11.16788561 72.35969196 11.11445842 66.98004348 11.06518555 61.6003418 C11.01760952 56.41320329 10.96526944 51.22613315 10.90955925 46.03907585 C10.88910495 44.05545684 10.87039708 42.07181906 10.85342598 40.08816719 C10.82944977 37.31985784 10.79938636 34.55167898 10.76782227 31.78344727 C10.75918907 30.54051659 10.75918907 30.54051659 10.75038147 29.2724762 C11.05051344 25.58336096 11.05051344 25.58336096 9.5625 22.5 C8.15901265 22.40139869 6.75069523 22.36921063 5.34375 22.3671875 C4.49425781 22.36589844 3.64476562 22.36460938 2.76953125 22.36328125 C1.87621094 22.36714844 0.98289063 22.37101562 0.0625 22.375 C-1.27748047 22.36919922 -1.27748047 22.36919922 -2.64453125 22.36328125 C-3.91876953 22.36521484 -3.91876953 22.36521484 -5.21875 22.3671875 C-6.00314453 22.36831543 -6.78753906 22.36944336 -7.59570312 22.37060547 C-9.45502988 22.29892558 -9.45502988 22.29892558 -10.4375 23.5 C-10.56268823 26.26856867 -10.62358205 29.01341126 -10.64282227 31.78344727 C-10.65767166 33.08576797 -10.65767166 33.08576797 -10.67282104 34.41439819 C-10.70453368 37.29837267 -10.72923188 40.18236365 -10.75390625 43.06640625 C-10.77446736 45.06038351 -10.7954636 47.05435632 -10.81687927 49.04832458 C-10.87218707 54.30740776 -10.9215578 59.56653083 -10.96972656 64.82568359 C-11.01987818 70.18786182 -11.07559726 75.54998181 -11.13085938 80.91210938 C-11.2385474 91.44135844 -11.33945438 101.97065673 -11.4375 112.5 C-19.6875 112.5 -27.9375 112.5 -36.4375 112.5 C-36.61424028 102.3112371 -36.78140066 92.12243553 -36.93227577 81.93325615 C-37.00272395 77.20066541 -37.07716574 72.46821156 -37.16113281 67.73583984 C-37.24219931 63.15828725 -37.31225511 58.58068003 -37.37507248 54.00284195 C-37.40074937 52.26713099 -37.43021644 50.5314713 -37.46376419 48.79589462 C-38.03163865 18.98640037 -38.03163865 18.98640037 -28.94140625 8.828125 C-20.990386 1.12497829 -10.61410983 -0.17870239 0 0 Z " fill="#00D2F1" transform="translate(119.4375,2.5)"/>
<path d="M0 0 C64.92537313 0 64.92537313 0 75 10 C82.04091583 18.89378841 82.65941842 30.31594371 81.71875 41.27734375 C80.88061391 46.36902051 79.49156901 50.45017834 77 55 C75.91975342 57.40110217 75.91975342 57.40110217 76 60 C76.96542954 61.66453368 77.93643142 63.32628172 78.9453125 64.96484375 C83.19741301 73.16982289 82.40789358 83.97430682 82.78125 93.00390625 C83.04389255 99.34745336 83.51662246 105.6697487 84 112 C79.85418113 112.02886751 75.70838784 112.04675327 71.5625 112.0625 C70.37849609 112.07087891 69.19449219 112.07925781 67.97460938 112.08789062 C66.84990234 112.09111328 65.72519531 112.09433594 64.56640625 112.09765625 C63.00321655 112.10551147 63.00321655 112.10551147 61.40844727 112.11352539 C59 112 59 112 58 111 C57.74647744 108.47048006 57.54985366 105.95762414 57.38671875 103.421875 C57.27229062 101.85280558 57.15702947 100.28379672 57.04101562 98.71484375 C56.86182638 96.23560973 56.68791575 93.75647193 56.52856445 91.27587891 C56.37263281 88.88556389 56.19396528 86.49780911 56.01171875 84.109375 C55.96987961 83.37273621 55.92804047 82.63609741 55.88493347 81.87713623 C55.49584472 77.07914893 54.47161216 74.35949596 51 71 C48.01632274 70.00544091 45.7995808 69.80440368 42.67578125 69.68359375 C41.74934814 69.64548584 40.82291504 69.60737793 39.8684082 69.56811523 C38.6949585 69.52501221 37.52150879 69.48190918 36.3125 69.4375 C30.7128125 69.2209375 30.7128125 69.2209375 25 69 C25 83.19 25 97.38 25 112 C16.75 112 8.5 112 0 112 C0 75.04 0 38.08 0 0 Z M25 21 C25 29.91 25 38.82 25 48 C40.35752941 48.92510645 40.35752941 48.92510645 54.1875 43.625 C57.27933927 39.02688006 56.91263413 33.2530358 56 28 C54.62177103 25.21733999 53.41723026 24.07994232 51 22 C47.94080612 20.98026871 45.87581975 20.88466398 42.67578125 20.90234375 C41.28613159 20.90609009 41.28613159 20.90609009 39.8684082 20.90991211 C38.10823364 20.92356812 38.10823364 20.92356812 36.3125 20.9375 C30.7128125 20.9684375 30.7128125 20.9684375 25 21 Z " fill="#00D2F1" transform="translate(297,3)"/>
<path d="M0 0 C1.19085205 0.00757324 2.3817041 0.01514648 3.60864258 0.02294922 C15.38674924 0.24430879 25.9027482 1.77985747 34.625 10.4375 C40.55325947 17.92582775 40.73980724 23.7003796 41.625 33.4375 C33.045 34.7575 24.465 36.0775 15.625 37.4375 C14.965 34.4675 14.305 31.4975 13.625 28.4375 C11.41150529 25.78130635 9.70560516 23.97780258 6.625 22.4375 C-2.64563326 21.46283808 -2.64563326 21.46283808 -11.1875 24.3125 C-13.57028026 26.62720082 -14.31236785 27.48811307 -14.52890015 30.77033997 C-14.54176056 31.7456517 -14.55462097 32.72096344 -14.56787109 33.72583008 C-14.58393402 34.83070267 -14.59999695 35.93557526 -14.61654663 37.07392883 C-14.66092035 42.12911424 -14.70205801 47.18416745 -14.72509766 52.23950195 C-14.73843287 54.90841561 -14.76895802 57.57552187 -14.80712891 60.24438477 C-14.86181351 64.08633513 -14.88375987 67.92724444 -14.8984375 71.76953125 C-14.92110687 72.96238235 -14.94377625 74.15523346 -14.96713257 75.38423157 C-15.17305389 82.10066598 -15.17305389 82.10066598 -11.96728516 87.66674805 C-6.21448661 91.59640032 -0.17870812 91.00189851 6.625 90.4375 C9.89792656 89.30950924 11.83199739 87.67480904 13.7265625 84.71875 C14.91777863 81.69409688 15.05568908 78.92601534 15.25 75.6875 C15.435625 72.59375 15.435625 72.59375 15.625 69.4375 C10.345 69.4375 5.065 69.4375 -0.375 69.4375 C-0.375 62.5075 -0.375 55.5775 -0.375 48.4375 C13.485 48.4375 27.345 48.4375 41.625 48.4375 C41.66625 53.820625 41.7075 59.20375 41.75 64.75 C41.76820801 66.42489502 41.78641602 68.09979004 41.80517578 69.82543945 C41.88482303 82.39694985 41.80211044 94.76432953 32.625 104.4375 C23.16521917 111.99187474 11.96841955 112.97900231 0.25 112.875 C-0.94085205 112.86742676 -2.1317041 112.85985352 -3.35864258 112.85205078 C-14.25636804 112.64723723 -24.03390032 111.41957944 -32.72265625 104.21875 C-37.78055338 98.76626515 -40.45050705 92.35029218 -40.61206055 84.97900391 C-40.63846115 83.85998688 -40.66486176 82.74096985 -40.69206238 81.58804321 C-40.72654228 79.76942276 -40.72654228 79.76942276 -40.76171875 77.9140625 C-40.80000542 76.03562149 -40.80000542 76.03562149 -40.83906555 74.11923218 C-40.89113961 71.46117313 -40.94094412 68.80317014 -40.98754883 66.14501953 C-41.03554854 63.44103582 -41.09094797 60.73737571 -41.15356445 58.03369141 C-41.24259037 54.11895063 -41.31643043 50.2041798 -41.38671875 46.2890625 C-41.43030769 44.50080551 -41.43030769 44.50080551 -41.47477722 42.67642212 C-41.63597319 31.73090467 -41.72175034 19.26739713 -34.375 10.4375 C-24.47467002 1.28773656 -13.03409571 -0.11567909 0 0 Z " fill="#00D2F2" transform="translate(427.375,2.5625)"/>
<path d="M0 0 C24.09 0 48.18 0 73 0 C73 6.93 73 13.86 73 21 C57.16 21 41.32 21 25 21 C25 28.59 25 36.18 25 44 C38.2 44 51.4 44 65 44 C65 50.93 65 57.86 65 65 C51.8 65 38.6 65 25 65 C25 73.91 25 82.82 25 92 C40.84 92 56.68 92 73 92 C73 98.6 73 105.2 73 112 C48.91 112 24.82 112 0 112 C0 75.04 0 38.08 0 0 Z " fill="#00D2F1" transform="translate(477,3)"/>
<path d="M0 0 C24.09 0 48.18 0 73 0 C73 6.93 73 13.86 73 21 C57.16 21 41.32 21 25 21 C25 28.59 25 36.18 25 44 C38.2 44 51.4 44 65 44 C65 50.93 65 57.86 65 65 C51.8 65 38.6 65 25 65 C25 73.91 25 82.82 25 92 C40.84 92 56.68 92 73 92 C73 98.6 73 105.2 73 112 C48.91 112 24.82 112 0 112 C0 75.04 0 38.08 0 0 Z " fill="#00D2F1" transform="translate(218,3)"/>
<path d="M0 0 C24.09 0 48.18 0 73 0 C73 6.93 73 13.86 73 21 C57.16 21 41.32 21 25 21 C25 28.59 25 36.18 25 44 C38.2 44 51.4 44 65 44 C65 50.93 65 57.86 65 65 C51.8 65 38.6 65 25 65 C25 73.91 25 82.82 25 92 C40.84 92 56.68 92 73 92 C73 98.6 73 105.2 73 112 C48.91 112 24.82 112 0 112 C0 75.04 0 38.08 0 0 Z " fill="#00D2F1" transform="translate(6,3)"/>
<path d="M0 0 C1.65 0.33 3.3 0.66 5 1 C5.26514404 2.03664795 5.53028809 3.0732959 5.8034668 4.14135742 C11.28249525 25.51399829 16.98600246 46.80664546 23.125 68 C23.41216888 68.99333344 23.69933777 69.98666687 23.99520874 71.01010132 C24.80884801 73.82013653 25.62604349 76.6291015 26.4453125 79.4375 C26.68962509 80.27827591 26.93393768 81.11905182 27.18565369 81.98530579 C28.353612 86.08260755 28.353612 86.08260755 30 90 C50.52748355 50.62115856 50.52748355 50.62115856 60 9 C58.33657163 7.33657163 56.2174291 7.63951903 53.9375 7.4375 C53.01839844 7.35371094 52.09929687 7.26992187 51.15234375 7.18359375 C50.44207031 7.12300781 49.73179687 7.06242188 49 7 C49 5.35 49 3.7 49 2 C60.55 2 72.1 2 84 2 C83.67 3.65 83.34 5.3 83 7 C81.14568359 7.26683594 81.14568359 7.26683594 79.25390625 7.5390625 C75.60446815 8.47728324 75.12061923 8.83253217 72.77734375 12.0859375 C72.13212359 13.50149788 71.52188137 14.93325847 70.9375 16.375 C70.57503174 17.20185303 70.21256348 18.02870605 69.83911133 18.88061523 C68.52666157 21.90735056 67.26455695 24.95295586 66 28 C65.21473091 29.84398897 64.42937975 31.68794396 63.64193726 33.53100586 C52.28293867 60.15497914 41.69444493 87.10457393 31 114 C27.7 114 24.4 114 21 114 C20.6282666 112.63311035 20.2565332 111.2662207 19.87353516 109.85791016 C18.1283018 103.44576994 16.37769345 97.03510477 14.625 90.625 C14.30964294 89.47128906 13.99428589 88.31757812 13.66937256 87.12890625 C9.24251303 70.95315985 4.70132516 54.82076154 -0.15380859 38.76806641 C-0.53359863 37.50397949 -0.91338867 36.23989258 -1.3046875 34.9375 C-1.63452637 33.85339844 -1.96436523 32.76929688 -2.30419922 31.65234375 C-3 29 -3 29 -3 26 C-5.78919836 28.64457326 -7.96253667 31.24250827 -9.99609375 34.5 C-10.54797363 35.3768042 -11.09985352 36.2536084 -11.66845703 37.15698242 C-12.25224121 38.09517822 -12.83602539 39.03337402 -13.4375 40 C-14.69312191 41.99665277 -15.94965183 43.99273479 -17.20703125 45.98828125 C-17.8407666 46.99584473 -18.47450195 48.0034082 -19.12744141 49.04150391 C-21.91830407 53.4508486 -24.76953255 57.81983035 -27.625 62.1875 C-31.7654663 68.53974852 -35.87673479 74.90898563 -39.9375 81.3125 C-40.4221875 82.06853516 -40.906875 82.82457031 -41.40625 83.60351562 C-44.26079779 88.09512035 -46.93769882 92.6459997 -49.51171875 97.3046875 C-50.11314697 98.36518311 -50.7145752 99.42567871 -51.33422852 100.51831055 C-52.50537165 102.59092255 -53.6466876 104.68074752 -54.75366211 106.78833008 C-55.56009155 108.19828247 -55.56009155 108.19828247 -56.3828125 109.63671875 C-56.84059082 110.47936279 -57.29836914 111.32200684 -57.77001953 112.19018555 C-61.39882086 115.13525936 -65.50583098 114.33460134 -70 114 C-70.01030746 113.30462631 -70.02061493 112.60925262 -70.03123474 111.89280701 C-70.54575557 73.12911127 -70.54575557 73.12911127 -71.5 34.375 C-71.53536865 33.22700928 -71.5707373 32.07901855 -71.60717773 30.89624023 C-71.71112402 27.92865351 -71.84387966 24.96525928 -72 22 C-72.04898438 20.97938477 -72.09796875 19.95876953 -72.1484375 18.90722656 C-72.21289062 17.91948242 -72.27734375 16.93173828 -72.34375 15.9140625 C-72.39724609 15.03959473 -72.45074219 14.16512695 -72.50585938 13.26416016 C-73.08801965 10.59669257 -73.86029715 9.65177553 -76 8 C-78.04100238 7.42982192 -78.04100238 7.42982192 -80.1875 7.3125 C-82.0746875 7.1578125 -82.0746875 7.1578125 -84 7 C-84 5.35 -84 3.7 -84 2 C-70.8 2 -57.6 2 -44 2 C-44 3.65 -44 5.3 -44 7 C-44.69867187 7.04898437 -45.39734375 7.09796875 -46.1171875 7.1484375 C-47.02726563 7.22320313 -47.93734375 7.29796875 -48.875 7.375 C-50.23238281 7.47941406 -50.23238281 7.47941406 -51.6171875 7.5859375 C-54.17941903 7.79568132 -54.17941903 7.79568132 -56 10 C-56.30117031 13.13018458 -56.30117031 13.13018458 -56.24291992 16.86474609 C-56.24481827 17.57062363 -56.24671661 18.27650116 -56.24867249 19.00376892 C-56.25238549 21.34377045 -56.24166665 23.68346341 -56.23046875 26.0234375 C-56.22927685 27.64767419 -56.22882381 29.27191158 -56.2290802 30.89614868 C-56.22751429 34.30418194 -56.21921817 37.71211032 -56.20581055 41.12011719 C-56.18884756 45.48712183 -56.18499542 49.85401082 -56.18575573 54.22104454 C-56.18548362 57.5770681 -56.17999529 60.93306642 -56.17275429 64.28908157 C-56.16957308 65.89902175 -56.16760149 67.50896478 -56.16686058 69.11890793 C-56.16468969 71.37147627 -56.15592847 73.62392274 -56.14526367 75.87646484 C-56.14145187 77.15838715 -56.13764008 78.44030945 -56.13371277 79.76107788 C-56.02533028 82.38642507 -55.78537447 84.51266757 -55 87 C-49.43106674 79.52077172 -44.23479055 71.878826 -39.25 64 C-38.55608154 62.90840576 -37.86216309 61.81681152 -37.1472168 60.69213867 C-35.74746906 58.4889425 -34.3492447 56.28477765 -32.95263672 54.07958984 C-31.22650619 51.35723294 -29.49240813 48.64024587 -27.75390625 45.92578125 C-20.75038268 34.96061081 -14.09539685 23.80806886 -7.52050781 12.58154297 C-5.04078678 8.37143215 -2.52203052 4.18486461 0 0 Z " fill="#FEFEFE" transform="translate(637,0)"/>
<path d="M0 0 C7.68479207 -0.06975534 15.36955098 -0.12294022 23.05458832 -0.15543652 C26.62374621 -0.17103947 30.19268622 -0.19217818 33.76171875 -0.22631836 C37.21118793 -0.25910534 40.66044857 -0.27689332 44.11006165 -0.28463173 C46.05533736 -0.29280731 48.00053012 -0.31619545 49.94567871 -0.33988953 C59.31601237 -0.34165796 66.47832553 0.75682298 73.5234375 7.3515625 C78.23103453 12.60713379 78.55199045 18.13964631 78.33984375 24.9453125 C77.32030613 34.10943227 72.79592946 40.92576216 66 47 C60.40378494 50.91637389 52.92166196 55 46 55 C52.41197826 65.34035972 58.96830392 75.56440107 65.8125 85.625 C66.7262439 86.97295654 66.7262439 86.97295654 67.65844727 88.34814453 C70.59516984 92.63981756 73.59096742 96.88427218 76.703125 101.05078125 C77.24227539 101.77434814 77.78142578 102.49791504 78.33691406 103.2434082 C80.95971987 106.01367946 83.28553476 106.46936211 87 107 C87 108.65 87 110.3 87 112 C79.41 112 71.82 112 64 112 C62.576875 109.380625 61.15375 106.76125 59.6875 104.0625 C54.92389588 95.41415333 49.72841859 87.11674168 44.26220703 78.8984375 C43.10365548 77.15590425 41.95559941 75.40640481 40.80859375 73.65625 C36.90151413 67.72299406 32.81712052 61.99443267 28.46875 56.375 C27 54 27 54 27 50 C27.89460937 49.97421875 28.78921875 49.9484375 29.7109375 49.921875 C40.19974175 49.42986286 49.5328495 47.98811449 57 40 C61.80334411 33.08165556 63.31211973 26.34219242 62 18 C60.0171377 13.96345889 57.83420139 11.3499944 54 9 C51.14493951 8.04831317 49.09062718 7.8099054 46.11328125 7.68359375 C45.17548828 7.64169922 44.23769531 7.59980469 43.27148438 7.55664062 C42.29501953 7.51732422 41.31855469 7.47800781 40.3125 7.4375 C39.32443359 7.39431641 38.33636719 7.35113281 37.31835938 7.30664062 C34.87904229 7.20058336 32.43960051 7.09925508 30 7 C29.88970459 8.1655542 29.77940918 9.3311084 29.66577148 10.53198242 C28.96298112 16.83394781 27.83571012 23.06250183 26.73304939 29.30397987 C26.33850214 31.5401642 25.9482596 33.7770626 25.55918884 36.01420593 C24.45338358 42.37003453 23.34279567 48.72500722 22.22290039 55.07836914 C17.73836271 80.41999931 17.73836271 80.41999931 15 106 C21.93 106.495 21.93 106.495 29 107 C28.67 108.65 28.34 110.3 28 112 C14.14 112 0.28 112 -14 112 C-14 110.35 -14 108.7 -14 107 C-8.06 106.505 -8.06 106.505 -2 106 C0.95026595 92.40111787 3.58026839 78.7653186 6 65.0625 C6.17264374 64.08730408 6.34528748 63.11210815 6.52316284 62.10736084 C8.66683023 49.96681763 10.75921222 37.82131398 12.5625 25.625 C12.73072266 24.52293213 12.89894531 23.42086426 13.07226562 22.28540039 C13.83254578 16.89764582 14.13498444 12.33668182 13 7 C8.71 6.34 4.42 5.68 0 5 C0 3.35 0 1.7 0 0 Z " fill="#FEFEFE" transform="translate(834,2)"/>
<path d="M0 0 C25.08 0 50.16 0 76 0 C75.01 8.25 74.02 16.5 73 25 C71.02 25 69.04 25 67 25 C66.67 19.72 66.34 14.44 66 9 C53.79 8.67 41.58 8.34 29 8 C28.67 11.3 28.34 14.6 28 18 C27.56739261 20.59246457 27.0990461 23.17929846 26.58984375 25.7578125 C26.22814087 27.60850342 26.22814087 27.60850342 25.85913086 29.49658203 C25.55499268 31.02395996 25.25085449 32.55133789 24.9375 34.125 C23.968125 39.03375 22.99875 43.9425 22 49 C35.53 49 49.06 49 63 49 C62.01 52.3 61.02 55.6 60 59 C40.2 58.505 40.2 58.505 20 58 C19.67 61.3 19.34 64.6 19 68 C18.55887581 70.88732887 18.09759735 73.75789814 17.58984375 76.6328125 C17.47290161 77.31077881 17.35595947 77.98874512 17.23547363 78.68725586 C16.80666907 81.16717327 16.37175104 83.64603051 15.9375 86.125 C14.968125 91.69375 13.99875 97.2625 13 103 C28.51 103 44.02 103 60 103 C60.99 99.37 61.98 95.74 63 92 C63.66206314 89.66535628 64.32649361 87.33136827 65 85 C66.98 85 68.96 85 71 85 C70.35786248 94.07441701 69.20546973 102.95897704 68 112 C41.93 112 15.86 112 -11 112 C-11 110.35 -11 108.7 -11 107 C-9.7521875 106.80792969 -8.504375 106.61585937 -7.21875 106.41796875 C-4.91722827 105.6560479 -4.91722827 105.6560479 -3 104 C-0.97499943 99.30136587 -0.3080356 94.33264477 0.5 89.3125 C0.77273048 87.78058199 1.04835927 86.24917757 1.32666016 84.71826172 C2.09376533 80.43757719 2.81132309 76.14974228 3.52160645 71.85931396 C4.20174057 67.7942153 4.91188804 63.73449383 5.61993408 59.67417908 C6.5503783 54.32650903 7.46513614 48.97620624 8.375 43.625 C8.55039307 42.59420319 8.72578613 41.56340637 8.90649414 40.50137329 C10.73333796 29.68633286 12.51083746 18.9734591 13 8 C9.80830207 6.30923065 7.36696975 5.66055024 3.75 5.375 C2.41195312 5.26285156 2.41195312 5.26285156 1.046875 5.1484375 C0.03367187 5.07496094 0.03367187 5.07496094 -1 5 C-0.67 3.35 -0.34 1.7 0 0 Z " fill="#FEFEFE" transform="translate(943,2)"/>
<path d="M0 0 C1.23556641 0.01740234 1.23556641 0.01740234 2.49609375 0.03515625 C3.32238281 0.04417969 4.14867187 0.05320313 5 0.0625 C5.63808594 0.07410156 6.27617188 0.08570313 6.93359375 0.09765625 C9.94080475 14.6840597 12.73940471 29.30275714 15.4140625 43.953125 C15.56441074 44.77575962 15.71475899 45.59839424 15.86966324 46.44595718 C17.27654558 54.14563604 18.67882428 61.84614822 20.07592773 69.54760742 C20.8495821 73.81109299 21.6274709 78.07378829 22.40798378 82.33602333 C22.70104877 83.94122025 22.9924904 85.54671449 23.28221703 87.15251732 C23.68441414 89.38131377 24.09198203 91.60906739 24.50073242 93.83666992 C24.72991867 95.09807297 24.95910492 96.35947601 25.19523621 97.65910339 C25.89797023 100.93175646 26.698577 103.98617261 27.93359375 107.09765625 C30.22989369 108.24580622 32.01057461 108.40535434 34.55859375 108.66015625 C35.78449219 108.78583984 35.78449219 108.78583984 37.03515625 108.9140625 C37.66164063 108.97464844 38.288125 109.03523438 38.93359375 109.09765625 C38.93359375 110.74765625 38.93359375 112.39765625 38.93359375 114.09765625 C25.40359375 114.09765625 11.87359375 114.09765625 -2.06640625 114.09765625 C-2.06640625 112.44765625 -2.06640625 110.79765625 -2.06640625 109.09765625 C-1.21175781 109.03707031 -0.35710937 108.97648437 0.5234375 108.9140625 C1.62816406 108.83027344 2.73289062 108.74648437 3.87109375 108.66015625 C5.52431641 108.53833984 5.52431641 108.53833984 7.2109375 108.4140625 C9.84469278 108.39347541 9.84469278 108.39347541 10.93359375 107.09765625 C10.87719275 98.76440847 9.45045675 90.53967939 7.95019531 82.36743164 C7.81967773 81.64031982 7.68916016 80.91320801 7.5546875 80.1640625 C7.43536865 79.52412354 7.3160498 78.88418457 7.19311523 78.22485352 C6.8614231 75.50610135 6.8949162 72.83354541 6.93359375 70.09765625 C-14.64045077 67.08762371 -14.64045077 67.08762371 -34.85375977 72.27819824 C-41.20063046 78.1650701 -44.35002256 86.91316962 -46.98364258 94.95385742 C-48.06640625 98.09765625 -48.06640625 98.09765625 -49.7019043 101.3137207 C-51.28646245 104.02990279 -51.28646245 104.02990279 -51.06640625 107.09765625 C-46.77640625 107.75765625 -42.48640625 108.41765625 -38.06640625 109.09765625 C-38.06640625 110.74765625 -38.06640625 112.39765625 -38.06640625 114.09765625 C-49.94640625 114.09765625 -61.82640625 114.09765625 -74.06640625 114.09765625 C-74.06640625 112.44765625 -74.06640625 110.79765625 -74.06640625 109.09765625 C-73.05578125 109.13890625 -72.04515625 109.18015625 -71.00390625 109.22265625 C-68.21739571 108.82269034 -67.2623266 108.31970308 -65.37475586 106.18041992 C-61.24703684 100.00557621 -57.38246471 93.73014806 -53.69140625 87.28515625 C-52.46136861 85.15730282 -51.23087993 83.02971006 -50 80.90234375 C-49.3591748 79.79213867 -48.71834961 78.68193359 -48.05810547 77.53808594 C-44.99933834 72.25442003 -41.90964897 66.98902502 -38.81878662 61.72409058 C-37.02935773 58.67594867 -35.2413279 55.62698624 -33.453125 52.578125 C-33.0947052 51.96713455 -32.7362854 51.3561441 -32.36700439 50.72663879 C-29.74979807 46.26464062 -27.13604444 41.80062996 -24.5234375 37.3359375 C-2.74809001 0.12987193 -2.74809001 0.12987193 0 0 Z M-4.06640625 19.09765625 C-4.40260986 19.69489502 -4.73881348 20.29213379 -5.08520508 20.9074707 C-6.68194498 23.74235486 -8.28024342 26.57635602 -9.87890625 29.41015625 C-10.46115967 30.44293701 -11.04341309 31.47571777 -11.64331055 32.53979492 C-14.52451779 37.63990339 -17.42203532 42.72847843 -20.37890625 47.78515625 C-20.88574951 48.65229248 -21.39259277 49.51942871 -21.91479492 50.4128418 C-22.8772956 52.0545659 -23.84350071 53.69412482 -24.8137207 55.33129883 C-25.45893677 56.43187622 -25.45893677 56.43187622 -26.1171875 57.5546875 C-26.49528564 58.1938208 -26.87338379 58.8329541 -27.26293945 59.49145508 C-28.21553182 61.09644624 -28.21553182 61.09644624 -28.06640625 63.09765625 C-17.17640625 63.09765625 -6.28640625 63.09765625 4.93359375 63.09765625 C4.31870968 56.94881559 3.68087073 50.99056883 2.59375 44.9375 C2.46673203 44.22155167 2.33971405 43.50560333 2.20884705 42.76795959 C1.94281948 41.27795862 1.67470926 39.78832802 1.40454102 38.29907227 C0.99158519 36.01016648 0.59235745 33.71910939 0.19335938 31.42773438 C-0.06817925 29.97250663 -0.33051894 28.51742256 -0.59375 27.0625 C-0.71153305 26.37719711 -0.8293161 25.69189423 -0.95066833 24.98582458 C-1.25597407 23.34265162 -1.65292661 21.71699672 -2.06640625 20.09765625 C-2.72640625 19.76765625 -3.38640625 19.43765625 -4.06640625 19.09765625 Z " fill="#FEFEFE" transform="translate(772.06640625,-0.09765625)"/>
</svg>
